<svg width="15" height="15" viewBox="0 0 15 15" fill="none" xmlns="http://www.w3.org/2000/svg">
<path fill-rule="evenodd" clip-rule="evenodd" d="M7.45995 0.600098C3.65995 0.600098 0.709961 3.39015 0.709961 7.15015C0.709961 9.12015 1.51996 10.8201 2.82996 11.9901C2.93996 12.0901 3.00995 12.2301 3.00995 12.3801L3.04996 13.5801C3.05996 13.9601 3.45995 14.2102 3.80995 14.0602L5.14995 13.4701C5.25995 13.4201 5.38995 13.4101 5.50995 13.4401C6.12995 13.6101 6.77995 13.7001 7.45995 13.7001C11.2599 13.7001 14.2099 10.9101 14.2099 7.15015C14.2099 3.39015 11.2599 0.600098 7.45995 0.600098ZM11.51 5.64014L9.52995 8.79016C9.20995 9.29016 8.53996 9.42018 8.06996 9.06018L6.48994 7.88013C6.34994 7.77013 6.14995 7.77013 5.99995 7.88013L3.86995 9.50012C3.58995 9.72012 3.20995 9.38007 3.39995 9.07007L5.37996 5.92017C5.69996 5.42017 6.36995 5.29015 6.83995 5.65015L8.41997 6.83008C8.55997 6.94008 8.75996 6.94008 8.90996 6.83008L11.04 5.21008C11.32 4.99008 11.7 5.33014 11.51 5.64014Z" fill="black"/>
</svg>
