<svg width="15" height="14" viewBox="0 0 15 14" fill="none" xmlns="http://www.w3.org/2000/svg">
<path fill-rule="evenodd" clip-rule="evenodd" d="M6.83018 0.5H8.0302C9.6702 0.5 10.6302 0.739951 11.4902 1.19995C12.3402 1.65995 13.0202 2.33005 13.4702 3.18005C13.9302 4.03005 14.1702 4.99001 14.1702 6.64001V7.82996C14.1702 9.46996 13.9302 10.43 13.4702 11.29C13.0102 12.14 12.3402 12.82 11.4902 13.27C10.6402 13.73 9.6802 13.97 8.0302 13.97H6.84019C5.20019 13.97 4.2402 13.73 3.3802 13.27C2.5302 12.81 1.85019 12.14 1.40019 11.29C0.940192 10.44 0.700195 9.47996 0.700195 7.82996V6.64001C0.700195 5.00001 0.940192 4.04005 1.40019 3.18005C1.86019 2.33005 2.5302 1.64995 3.3802 1.19995C4.2302 0.739951 5.19019 0.5 6.83018 0.5Z" fill="black"/>
<path opacity="0.12" fill-rule="evenodd" clip-rule="evenodd" d="M14.1601 7.62012V7.82007C14.1601 9.46007 13.9201 10.4202 13.4601 11.2802C13.0001 12.1302 12.3301 12.8101 11.4801 13.2601C10.6301 13.7201 9.67011 13.9601 8.02011 13.9601H6.83011C5.48011 13.9601 4.60013 13.8001 3.85013 13.4901L2.62012 12.2201L14.1501 7.63013L14.1601 7.62012Z" fill="#001A33"/>
<path fill-rule="evenodd" clip-rule="evenodd" d="M2.77039 12.26C3.40039 12.33 4.19038 12.15 4.75038 11.88C7.18038 13.22 10.9704 13.1599 13.2704 11.6899C13.3604 11.5599 13.4404 11.42 13.5204 11.27C13.9804 10.41 14.2204 9.45005 14.2204 7.80005V6.59998C14.2204 4.94998 13.9804 3.99001 13.5204 3.13C13.0704 2.27 12.3904 1.60001 11.5304 1.14001C10.6704 0.680015 9.71038 0.439941 8.06038 0.439941H6.86037C5.45037 0.439941 4.54038 0.619951 3.78038 0.949951C3.74038 0.989951 3.70039 1.03006 3.66039 1.06006C1.41039 3.23006 1.24038 7.92998 3.15038 10.48C3.15038 10.48 3.15038 10.48 3.15038 10.49C3.44038 10.92 3.16038 11.68 2.72038 12.12C2.65038 12.19 2.67038 12.23 2.78038 12.24L2.77039 12.26Z" fill="white"/>
<path d="M6.23003 5.06006H3.59001V5.63H5.42001L3.62001 7.85999C3.56001 7.93999 3.52002 8.01994 3.52002 8.18994V8.32996H6.01003C6.13002 8.32996 6.24001 8.22998 6.24001 8.09998V7.80005H4.32002L6.02 5.67004C6.02 5.67004 6.09 5.58006 6.11 5.56006V5.54004C6.22 5.40004 6.24001 5.27 6.24001 5.12V5.04004L6.23003 5.06006Z" fill="black"/>
<path d="M9.58011 8.32971H9.96011V5.0498H9.39014V8.13977C9.39014 8.23977 9.47011 8.32971 9.58011 8.32971Z" fill="black"/>
<path d="M7.65012 5.79004C6.94012 5.79004 6.37012 6.36995 6.37012 7.06995C6.37012 7.76995 6.95012 8.34998 7.65012 8.34998C8.35012 8.34998 8.93011 7.76995 8.93011 7.06995C8.93011 6.35995 8.36012 5.79004 7.65012 5.79004ZM7.65012 7.82996C7.23012 7.82996 6.89014 7.48995 6.89014 7.06995C6.89014 6.64995 7.23012 6.31006 7.65012 6.31006C8.07012 6.31006 8.41013 6.64995 8.41013 7.06995C8.41013 7.48995 8.08012 7.82996 7.65012 7.82996Z" fill="black"/>
<path d="M11.6303 5.77002C10.9203 5.77002 10.3403 6.35006 10.3403 7.06006C10.3403 7.77006 10.9203 8.34998 11.6303 8.34998C12.3403 8.34998 12.9203 7.77006 12.9203 7.06006C12.9203 6.35006 12.3403 5.77002 11.6303 5.77002ZM11.6303 7.82996C11.2103 7.82996 10.8703 7.48995 10.8703 7.06995C10.8703 6.64995 11.2103 6.31006 11.6303 6.31006C12.0503 6.31006 12.3904 6.64995 12.3904 7.06995C12.3904 7.48995 12.0503 7.82996 11.6303 7.82996Z" fill="black"/>
<path d="M8.64017 8.33008H8.94016V5.8501H8.41016V8.11011C8.41016 8.23011 8.51017 8.33008 8.64017 8.33008Z" fill="black"/>
</svg>
